<svg width="24" height="24" viewBox="0 0 24 24" fill="none" xmlns="http://www.w3.org/2000/svg">
<path d="M9.03033 17.1634C8.31242 17.1734 6.7659 17.368 6.42707 17.103C6.16205 17.9383 5.41059 18.3811 4.55514 18.3442C3.80704 18.3107 3.20319 17.9048 3.05893 17.1868L0.291291 17.2372C0.106782 17.2372 -0.0206975 17.0761 0.00278557 16.9017C0.0967177 16.2341 0.227552 15.5732 0.401997 14.9191C0.536186 14.4192 0.895141 14.1273 1.36816 13.973C3.00526 13.4329 4.61552 12.9867 6.29959 12.5439C6.99402 11.4872 7.58445 10.4271 8.37281 9.44415C9.04375 8.60547 10.7513 8.74302 11.7477 8.68934C11.8416 8.18278 11.8047 7.70976 11.8617 7.17972C11.9422 6.44168 12.4354 5.67345 13.2841 5.67009L20.4364 5.65332L22.097 5.74725C23.2577 5.81435 24.0662 6.61612 23.9957 7.76008L23.7106 12.393C23.6368 13.6107 23.6938 14.7714 23.7173 15.9825C23.7274 16.4522 23.0061 16.1637 22.7746 16.2375C22.8484 17.0124 22.5197 17.7303 21.889 18.0691C21.2583 18.408 20.4062 18.418 19.8057 17.9282C19.2924 17.5089 19.1918 16.7742 19.3494 16.1335C19.3763 16.0261 19.0643 16.0295 19.0542 16.1033L18.8798 17.1868C18.2357 17.321 17.5916 17.1734 16.9307 17.1634L12.9117 17.1063L9.02698 17.16L9.03033 17.1634Z" fill="#A32F75"/>
<path d="M22.9553 14.4832C23.0191 14.8489 23.0224 15.1877 23.0157 15.5366C22.3146 15.4527 18.7116 15.1172 18.4164 15.6003C18.2453 15.8754 18.3829 16.2344 18.2621 16.5698C17.675 16.5027 17.1047 16.486 16.5109 16.4759L12.5155 16.4189C12.4081 15.5399 12.4215 14.7549 12.4148 13.8928C12.3947 11.6719 12.3813 9.50815 12.5524 7.3041C12.596 6.75057 12.9281 6.31445 13.5185 6.31445H19.604L22.1234 6.43522C22.4958 6.452 22.7943 6.56941 23.0124 6.79418C23.274 7.06591 23.3244 7.40474 23.3009 7.81401L22.9822 13.7921C20.1307 13.7787 17.3999 13.8458 14.6256 14.0169C14.4176 14.0303 14.3438 14.2316 14.3404 14.3524C14.3371 14.5503 14.4578 14.7113 14.696 14.7012C17.457 14.5604 20.1676 14.4429 22.9587 14.4832H22.9553Z" fill="#D0518A"/>
<path d="M6.6284 13.1577C6.97058 13.0637 7.01419 12.5807 7.21547 12.3962C7.1987 12.8054 7.22889 13.5032 7.69855 13.5535C8.08435 13.5971 8.27221 13.1979 8.43324 12.8054C8.47349 13.0839 10.228 12.9665 10.4628 12.9363C10.7547 12.9027 10.9929 12.7014 10.9895 12.3895C10.9895 11.789 11.1573 10.3364 11.0063 10.1686C10.8419 9.98412 9.73487 9.99083 9.4732 10.3062C8.90961 10.9872 8.50033 11.7755 8.17157 12.5337C8.07764 12.1446 7.9099 11.9332 7.54759 11.8594C9.12095 9.56478 8.6211 9.36349 11.7477 9.39369C11.6772 11.071 11.6672 12.6847 11.7209 14.3889C10.4528 14.3754 9.23166 14.4258 7.977 14.5365C7.78913 14.5532 7.68849 14.7143 7.68513 14.8652C7.68513 14.986 7.78242 15.2309 7.98706 15.2208C9.24508 15.1437 10.4561 15.0665 11.7276 15.0799L11.7645 16.4118L7.08129 16.5493C6.91019 15.2812 5.94404 14.2647 4.64576 14.3453C3.49509 14.4157 2.68996 15.3584 2.51551 16.4789L0.774414 16.5158C0.952214 15.714 0.881765 14.8619 1.546 14.6371C3.21329 14.0735 4.87388 13.6408 6.62169 13.1543L6.6284 13.1577Z" fill="#D0518A"/>
<path d="M3.87112 17.3043C3.42494 16.5998 3.88118 15.5766 4.6427 15.4189C5.22307 15.2982 5.60886 15.7611 5.74976 16.1737C5.92756 16.7004 5.74976 17.2137 5.317 17.4787C4.91779 17.727 4.17304 17.784 3.87112 17.3043Z" fill="#D0518A"/>
<path d="M22.0298 16.1604C22.1942 16.63 22.0131 17.1333 21.644 17.3949C21.2549 17.6734 20.6578 17.727 20.2552 17.3916C19.8895 17.0829 19.9231 16.4959 20.1244 16.0631C20.7752 16.0396 21.3723 16.0497 22.0265 16.1604H22.0298Z" fill="#D0518A"/>
<path d="M16.8035 12.8091H13.7541C13.5595 12.8091 13.432 12.6581 13.4253 12.477C13.375 10.9204 13.4723 9.42416 13.6501 7.88434C13.6669 7.75015 13.7809 7.57906 13.9319 7.569C14.9685 7.51868 15.9783 7.51532 17.0149 7.62938C17.2564 7.65622 17.4879 7.77364 17.451 8.05879C17.2665 9.53822 17.1591 10.9841 17.1189 12.4736C17.1155 12.6313 17.0015 12.8091 16.8035 12.8091Z" fill="#A32F75"/>
</svg>
