<svg width="24" height="24" viewBox="0 0 24 24" fill="none" xmlns="http://www.w3.org/2000/svg">
<path d="M19.2003 19.3744C17.3796 19.9762 15.5283 19.2068 14.5532 17.6831L12.0239 13.7369C11.3611 12.7084 9.36513 11.4971 8.16907 12.4037C7.11013 13.4931 1.32024 21.1723 0.230828 20.8828C0.0860805 20.8447 -0.111995 20.5324 0.0784622 20.3571C4.86274 16.129 9.96698 8.72404 13.2809 3.10938C14.0123 3.34554 13.7076 3.84835 13.2809 4.53399C15.0103 4.40448 16.4806 5.15107 17.3872 6.58331L19.7107 10.2477C21.5239 13.1122 24.7921 11.1238 23.8246 12.5484L19.1927 19.3744H19.2003Z" fill="#A42E74"/>
<path d="M16.7244 10.7581C17.0367 10.6667 17.1586 10.7657 17.2729 11.0095C17.4405 10.6972 17.5929 10.5753 17.9585 10.7353C18.3014 10.56 18.7051 10.8343 19.1622 11.558C19.2537 11.4133 19.4136 11.36 19.6422 11.3981C19.9698 11.8932 20.8154 12.1294 21.2801 12.4798C21.562 12.9522 21.2268 13.3331 20.6935 13.2645C20.3431 13.714 19.8098 13.4855 19.9317 12.9217C19.6346 13.2874 19.4746 13.0817 19.246 12.777C18.9184 13.3864 18.5832 13.5388 18.2404 13.2264C17.8214 13.5007 17.7452 13.3712 17.8976 12.9065C17.6005 13.0055 17.3872 12.8531 17.25 12.4646C17.052 12.8608 16.7853 12.9903 16.4425 12.8531C15.9245 13.0055 15.7721 12.8303 15.993 12.3351C15.4902 12.3351 15.2541 11.718 15.2845 11.2762C15.1398 11.1847 15.155 11.1238 15.3226 11.0933C15.1245 10.621 15.5588 10.0496 16.0844 10.1258C16.473 9.59252 17.0748 10.2172 16.7244 10.7505V10.7581Z" fill="#CF508A"/>
<path d="M14.5456 12.4341C15.0407 12.0761 15.3607 12.5103 15.1093 13.036C15.4674 12.876 15.5664 13.036 15.6959 13.3559C15.8864 12.9369 16.1378 12.8303 16.4349 13.0436C16.9606 12.6779 17.2729 13.3026 17.1282 13.7978C17.6157 13.775 17.6995 13.8892 17.5014 14.3387C17.9433 14.9101 17.5548 15.8471 16.8234 15.5119C16.3511 15.8928 15.9092 15.4586 16.1911 14.9482C15.9168 15.1005 15.7492 15.0701 15.6731 14.7806C15.4674 15.1462 15.216 15.2529 14.9112 15.1158L14.4618 15.2072C14.1875 14.4073 13.8066 14.0644 13.3266 14.1787C13.159 13.714 12.4886 13.3179 12.222 12.8989C11.8182 12.3351 11.902 11.8094 12.6486 11.9542C13.06 11.7104 13.4485 11.9694 13.8142 12.7313C14.0504 12.4189 14.2942 12.3275 14.5532 12.4494L14.5456 12.4341Z" fill="#CF508A"/>
<path d="M13.3343 10.56C13.7837 11.139 13.4333 12.0304 12.6486 11.8018C12.0696 12.1142 10.7745 11.2381 11.2621 10.5753C11.5059 10.362 11.7116 10.1029 11.8335 9.79822C11.8563 9.63061 11.9173 9.63062 12.0163 9.78298C12.5191 9.27256 13.3952 9.90487 13.3343 10.56Z" fill="#D0508A"/>
<path d="M20.7087 15.6643C20.4726 16.2128 20.1069 16.6623 19.7641 17.1727C19.2917 17.2794 18.4004 17.3098 18.4461 16.6775C17.9128 16.2966 18.408 15.5729 19.0403 15.7252C19.3755 15.2605 20.4726 15.032 20.7087 15.6643Z" fill="#CF5089"/>
<path d="M22.2019 13.4702C22.0876 14.0187 21.6686 14.3387 21.3258 14.7196C20.9449 15.1615 19.985 14.9405 19.985 14.3387C19.6879 13.775 20.046 13.2188 20.6935 13.2721C21.0516 12.8531 21.9886 12.9446 22.2019 13.4778V13.4702Z" fill="#CF5089"/>
<path d="M14.0732 6.43856C14.4998 6.79662 14.3322 7.13182 13.7837 6.98708C13.9056 7.26895 13.8904 7.54321 13.5476 7.4137C13.5323 7.57368 13.4714 7.56606 13.3876 7.4137C13.1057 7.80985 11.9782 7.68034 11.8868 7.16991C12.062 6.65949 12.4734 6.36999 12.801 6.01194C13.2505 5.46342 14.3627 5.63864 14.0656 6.43094L14.0732 6.43856Z" fill="#D0508A"/>
<path d="M12.6486 11.7942C12.8162 11.8247 12.8086 11.8704 12.641 11.939C12.4201 12.2208 12.1687 12.5103 12.2144 12.8836C11.8411 12.3046 11.1402 12.0837 10.7059 11.5504C10.3631 11.1847 10.546 10.7505 11.0564 10.7581C11.1173 10.6896 11.1859 10.6286 11.2545 10.5677C11.1326 10.979 12.2525 11.3828 12.641 11.7942H12.6486Z" fill="#AD3578"/>
<path d="M21.3258 14.7196C21.1277 14.9329 20.823 15.39 20.7087 15.6567L19.0403 15.7176C18.6747 15.7709 18.667 15.6186 19.0251 15.4814C18.8499 15.0396 19.2841 14.3844 19.7565 14.3235C19.825 14.1559 19.9012 14.1635 19.9774 14.3235L21.3182 14.7044L21.3258 14.7196Z" fill="#CA4C86"/>
<path d="M19.7641 17.1651L19.3298 17.8126C18.9032 18.2545 17.7986 18.5288 17.57 17.9041C17.41 17.8583 17.4176 17.805 17.5852 17.7441C17.311 17.3403 17.8062 16.5861 18.2785 16.647C18.3318 16.4871 18.3852 16.4947 18.4461 16.6699C18.9184 16.8908 19.7717 16.7461 19.7641 17.1651Z" fill="#CA4C86"/>
<path d="M13.3952 7.42132C13.9437 7.72605 13.2885 8.59453 12.801 8.7088C12.8314 8.90688 12.7629 8.96021 12.58 8.88402C12.1458 8.94497 12.0544 8.77737 12.2372 8.3736C12.0239 8.15267 11.742 8.08411 11.3764 8.14505C11.3535 7.68034 11.7877 7.51274 11.8944 7.19277C12.4048 7.20039 12.9229 7.21562 13.3952 7.43655V7.42132Z" fill="#A83275"/>
<path d="M17.5852 17.7441L17.57 17.9041C17.8443 18.224 17.6995 18.4221 17.1434 18.4907C17.2958 18.5592 17.2729 18.6126 17.1053 18.6583C16.3511 18.5668 16.0464 17.9041 15.5816 17.5536C15.2236 17.127 15.475 16.7004 15.9854 16.6166C16.054 16.4566 16.1302 16.4566 16.1911 16.6166C16.831 16.8527 17.2958 17.226 17.5852 17.7365V17.7441Z" fill="#C54884"/>
<path d="M16.3511 6.62902C16.6025 7.19277 16.0692 7.64225 15.5969 7.19277C15.1855 7.36799 14.0961 6.72805 14.2637 6.2481C13.997 5.77577 14.1342 5.5396 14.6751 5.50151C15.5207 5.47866 15.8178 6.17192 16.3435 6.62902H16.3511Z" fill="#D0508A"/>
<path d="M19.6422 11.3981C19.5584 11.6723 19.3755 11.9923 19.0937 12.1066L17.9662 10.7353C17.8062 10.6819 17.8138 10.621 17.9738 10.5524C17.6767 10.1334 17.9738 9.85916 18.4537 9.88202C18.728 10.4077 19.307 10.8876 19.6422 11.3981Z" fill="#BF4381"/>
<path d="M12.2372 8.36598C12.382 8.51835 12.6181 8.60977 12.58 8.87641C12.74 9.34112 12.4962 9.7068 12.0163 9.77536C11.9553 9.76774 11.8944 9.7906 11.8335 9.7906C11.8182 9.56205 11.3611 9.60776 11.323 9.45539C10.8659 9.40207 10.6526 9.27256 10.6755 9.05924C10.7593 8.72404 10.9574 8.36598 11.224 8.32027C11.6049 8.25933 11.9477 8.35075 12.2372 8.35075V8.36598Z" fill="#CF5089"/>
<path d="M17.4938 8.16029C17.6767 8.64786 17.6081 8.89926 17.052 8.78499C16.831 9.09734 16.7777 9.15066 16.5339 8.9145C16.2444 8.64024 15.7264 7.81747 15.635 7.42132C15.2769 7.48988 15.2541 7.33752 15.6045 7.19277C15.9321 7.13182 16.0997 6.81947 16.3587 6.62902C16.8844 7.08611 17.1205 7.56606 17.5014 8.16029H17.4938Z" fill="#B3397A"/>
<path d="M15.4217 15.87C15.9168 15.809 16.1073 16.1823 15.9854 16.6242C15.9702 16.9822 15.7264 17.2489 15.5816 17.5612C14.9722 17.1041 14.6979 16.548 14.3246 15.8776C14.0656 15.4129 14.4465 15.0244 14.896 15.3443C15.2845 14.9558 15.7112 15.4129 15.4217 15.87Z" fill="#CF5089"/>
<path d="M14.9112 15.1158C15.2769 15.1005 15.2693 15.2529 14.896 15.3443C14.6979 15.5119 14.5379 15.7252 14.3246 15.8776C14.0047 15.291 13.5552 14.8187 13.3266 14.1711C13.4104 14.0187 13.5552 13.8816 13.6923 13.8207C14.2637 13.5693 14.3932 14.7349 14.9189 15.1158H14.9112Z" fill="#B93E7D"/>
<path d="M18.4461 9.88202C18.3775 10.1563 18.1719 10.362 17.9662 10.5524C17.5243 10.7505 17.2805 10.461 17.5091 10.0115C16.9529 10.0344 16.7015 9.40969 17.0748 9.01354C16.8691 8.96021 16.8615 8.88402 17.0444 8.78499C17.1662 8.56406 17.311 8.34313 17.4862 8.16029C17.8519 8.73166 18.1414 9.29541 18.4461 9.88202Z" fill="#D0508A"/>
<path d="M10.5231 10.6134C10.6983 10.621 10.8659 10.8114 11.064 10.7657C11.0107 11.0552 10.8964 11.3295 10.7136 11.558C10.1803 11.6647 9.66225 11.4361 9.08326 11.3371C9.19753 11.0476 9.37275 10.781 9.53274 10.621C9.7689 10.4229 10.2336 10.4458 10.5155 10.621L10.5231 10.6134Z" fill="#CE4F89"/>
<path d="M14.6827 5.50913C14.6065 5.78339 14.4313 6.01955 14.2713 6.25572C14.4998 6.5376 14.3932 6.6214 14.0732 6.44618C13.799 6.03479 13.2657 6.05003 12.8086 6.02717C13.0676 5.67673 13.0752 5.42533 13.4638 5.31867C14.0275 5.16631 14.3551 5.51675 14.6827 5.50913Z" fill="#A83175"/>
<path d="M22.2019 13.4702C21.6991 13.4702 21.1735 13.4245 20.6935 13.2645C20.8611 12.9827 21.0439 12.7084 21.2801 12.4798C21.6458 12.7541 22.3162 12.5179 22.7961 12.716C22.7428 13.0436 22.3467 13.2493 22.2095 13.4702H22.2019Z" fill="#CA4C86"/>
<path d="M19.3298 17.8126C19.1775 18.0412 18.987 18.2469 18.827 18.4678C18.3623 18.6659 17.5852 18.7116 17.1434 18.4983C17.2577 18.285 17.4176 18.0945 17.57 17.9117C18.1642 18.026 18.7585 18.0183 19.3298 17.8203V17.8126Z" fill="#CF5089"/>
<path d="M18.827 18.4678L18.6518 18.7116C18.4156 18.8716 17.8214 18.8563 17.5167 18.7116L17.1053 18.6583C17.1282 18.6049 17.1205 18.544 17.1434 18.4907C17.7071 18.5973 18.2709 18.4373 18.827 18.4602V18.4678Z" fill="#D4548C"/>
<path d="M11.323 9.46301C11.0183 9.46301 10.7364 9.5011 10.3174 9.43254C10.3936 9.21923 10.546 9.15066 10.6755 9.06686C10.8507 9.27256 11.2545 9.24208 11.323 9.46301Z" fill="#D6558C"/>
<path d="M10.5231 10.6134C10.2108 10.5905 9.8527 10.5981 9.54035 10.6134C9.22039 10.5067 9.5175 10.3163 9.76128 10.4077C10.0813 10.3848 10.4545 10.3315 10.5231 10.6134Z" fill="#9E2A71"/>
<path d="M18.6442 18.7116V18.9021C18.2861 19.062 17.8671 19.0773 17.5091 18.9021V18.7116H18.6442Z" fill="#B93E7E"/>
<path d="M18.6442 18.9021C18.408 19.2144 17.73 19.2373 17.5091 18.9021H18.6442Z" fill="#9D2971"/>
<path d="M16.0844 9.92011C16.4577 9.88964 16.4654 10.042 16.0844 10.141C15.8635 10.4915 15.6807 10.8876 15.3226 11.1086C14.9798 11.2 14.6979 10.979 14.477 10.4534C14.1494 10.2096 14.0351 9.9582 14.1266 9.68394C13.9666 9.61538 13.959 9.54681 14.1189 9.46301C14.0047 9.04401 14.4237 8.54882 14.8427 8.51835C15.5207 8.02316 16.4577 9.25732 16.0844 9.92011Z" fill="#B3397A"/>
<path d="M15.3226 11.1086C15.2998 11.1619 15.3226 11.2457 15.2845 11.2914C15.7264 11.718 15.1474 12.5256 14.5684 12.2361C13.8447 12.1827 13.1819 11.2457 13.5552 10.5677C13.159 10.1563 13.5933 9.66871 14.1189 9.67632C14.7055 9.93535 15.0103 10.56 15.315 11.1009L15.3226 11.1086Z" fill="#D0508A"/>
<path d="M19.9317 12.9293C20.404 13.2417 19.7184 14.2244 19.2079 13.9959C18.8499 14.4073 18.149 13.9426 18.2861 13.455C18.1185 13.4093 18.1033 13.3407 18.2404 13.2341C18.6442 13.1198 18.7966 12.6855 19.1241 12.2665C19.5203 12.3656 19.6498 12.7846 19.9317 12.9217V12.9293Z" fill="#C44783"/>
<path d="M15.993 12.3427C16.3968 12.7465 15.5207 13.394 15.1093 13.036C14.9646 12.8074 14.7741 12.5789 14.5456 12.4341C14.3856 12.3656 14.3932 12.297 14.5608 12.2361C14.896 12.0075 15.056 11.619 15.2769 11.2914C15.7264 11.4209 15.8635 11.939 15.9854 12.3503L15.993 12.3427Z" fill="#B83D7D"/>
<path d="M17.8976 12.9141C17.8367 13.3179 17.5929 13.7902 17.1282 13.7902L16.4349 13.036C16.313 12.975 16.313 12.9141 16.4349 12.8608C16.7244 12.6246 16.8387 12.2742 17.1739 11.878C17.5624 12.1446 17.73 12.5484 17.89 12.9141H17.8976Z" fill="#BE4280"/>
<path d="M17.0748 9.01354C17.2653 9.32588 17.3796 9.67632 17.5091 10.0115C17.5624 10.5448 17.25 10.8191 16.7244 10.7581C16.572 10.5372 16.3359 10.2096 16.0844 10.1334C16.1149 10.0801 16.0692 9.97344 16.0844 9.91249C15.9549 9.37159 16.6711 8.36598 17.0824 9.01354H17.0748Z" fill="#B83D7D"/>
<path d="M17.9662 10.5524C17.9738 10.6134 17.9662 10.6819 17.9585 10.7353C17.7224 11.0019 17.5319 11.3219 17.2729 11.6875C16.8463 11.5199 16.9148 11.0324 16.7244 10.7581C16.892 10.4229 17.1891 10.1944 17.5091 10.0115C17.6233 10.1791 17.9281 10.3086 17.9662 10.5524Z" fill="#BA3F7E"/>
<path d="M16.4349 12.8608C16.473 12.9065 16.473 12.9979 16.4349 13.036C16.1454 13.295 15.9778 13.6607 15.6959 13.973C15.3302 13.6988 15.2998 13.3179 15.1093 13.036L15.993 12.3427C16.1606 12.4951 16.3054 12.6779 16.4425 12.8608H16.4349Z" fill="#BB3F7E"/>
<path d="M17.8976 12.9141C18.0195 13.0055 18.149 13.1045 18.2404 13.2341C18.2785 13.2874 18.2557 13.394 18.2861 13.455C18.6366 13.9654 18.309 14.4149 17.7148 14.3463C17.6843 14.6739 17.5395 14.6511 17.5014 14.3311C17.3034 14.2092 17.1891 14.0035 17.1282 13.7902C17.2348 13.3636 17.4253 12.9598 17.8976 12.9141Z" fill="#C04481"/>
<path d="M20.6935 13.2721C20.4269 13.6074 20.1907 13.9654 19.985 14.3387C19.9241 14.3235 19.825 14.3387 19.7641 14.3387C19.5051 14.8872 18.9565 14.5215 19.2156 14.0035L19.9393 12.9369C20.1755 13.0512 20.4497 13.196 20.7011 13.2798L20.6935 13.2721Z" fill="#C74985"/>
<path d="M14.5684 12.2361L14.5532 12.4341C14.317 12.7465 14.1266 13.1198 13.8218 13.3712C13.3952 12.8379 13.159 12.2589 12.6486 11.939V11.7942C13.0371 11.4819 13.3419 11.0552 13.3419 10.5524C13.3266 10.1867 13.479 10.1944 13.5552 10.5677C13.6847 11.2381 14.2942 11.6342 14.5684 12.2361Z" fill="#B3397A"/>
<path d="M19.0251 15.4891L19.0403 15.7252C18.7966 16.0071 18.5375 16.3042 18.4461 16.6775C18.3928 16.6547 18.3318 16.6775 18.2785 16.6547C17.9128 17.2337 16.5568 16.2814 16.8006 15.7176C16.6558 15.6338 16.6634 15.5576 16.8234 15.5043C17.25 15.2834 17.3948 14.7729 17.5014 14.3311C17.5395 14.3006 17.7071 14.2854 17.7148 14.3463C18.2023 14.5139 19.0556 14.9177 19.0251 15.4814V15.4891Z" fill="#C54783"/>
<path d="M16.8234 15.5043C16.8082 15.5652 16.8387 15.6643 16.8006 15.7176C17.1586 16.1442 16.7092 16.7613 16.1911 16.6242C16.1302 16.609 16.0387 16.647 15.9854 16.6242C15.6578 16.4947 15.5436 16.1747 15.4217 15.87C14.9722 15.4586 15.6959 14.8567 16.1911 14.9405C16.3663 15.1539 16.5949 15.3519 16.8234 15.5043Z" fill="#C04481"/>
<path d="M16.1911 14.9405C16.0692 15.3519 15.6197 15.5043 15.4217 15.87L14.896 15.3443L14.9112 15.1158L15.6578 14.1482C15.9854 14.3539 16.0083 14.712 16.1911 14.9482V14.9405Z" fill="#BE4280"/>
<path d="M14.1113 9.46301C14.0961 9.53158 14.1418 9.61538 14.1189 9.68394C14.0123 10.0344 13.7304 10.2705 13.5552 10.5753L13.3419 10.56C12.8848 10.3086 12.542 9.8744 12.0239 9.78298C12.062 9.40969 12.2906 9.09734 12.5877 8.88402C12.6638 8.8307 12.7476 8.78499 12.8086 8.7088C13.2276 8.06887 14.2942 8.79261 14.1189 9.46301H14.1113Z" fill="#AD3577"/>
<path d="M14.1113 7.61939C14.6141 7.34513 15.0103 7.78699 14.797 8.32789C14.9722 8.35075 14.9874 8.41931 14.8427 8.51835C14.7589 8.92212 14.5303 9.3335 14.1189 9.46301C13.6999 9.1659 13.3495 8.7088 12.8086 8.7088C12.8086 8.19076 13.2809 7.89365 13.4028 7.42132C13.4485 7.44417 13.5247 7.39084 13.5628 7.42132C13.6771 7.13944 13.8599 7.208 14.1189 7.61939H14.1113Z" fill="#CF5089"/>
<path d="M15.5969 7.19277C15.5893 7.26133 15.6502 7.35275 15.6274 7.42132C16.2597 7.8327 15.376 8.89926 14.7893 8.32789C14.5989 8.05363 14.3094 7.87841 14.1037 7.61939C13.8294 7.45941 13.6847 7.32228 13.7837 6.99469C13.9056 6.82709 13.9818 6.62902 14.0732 6.44618C14.1113 6.37 14.218 6.32429 14.2713 6.25572C14.7589 6.50712 15.2998 6.72805 15.6045 7.20039L15.5969 7.19277Z" fill="#AD3578"/>
<path d="M14.1113 7.61939C13.9666 7.52797 13.7076 7.52797 13.5552 7.42132C13.6161 7.26895 13.6923 7.13182 13.7914 6.99469C14.0199 7.09373 13.9894 7.42893 14.1113 7.61939Z" fill="#A73175"/>
<path d="M19.2079 13.9959C19.3908 14.1025 19.5279 14.3006 19.7565 14.3311C19.6269 14.7806 19.4441 15.2529 19.0251 15.4891C18.5071 15.2072 17.8138 14.9786 17.7148 14.3539C17.89 14.0416 18.1566 13.7978 18.2861 13.4626C18.629 13.5769 18.9032 13.8207 19.2079 14.0035V13.9959Z" fill="#CF5089"/>
<path d="M18.2785 16.647C18.1566 17.066 17.9052 17.447 17.5852 17.7441C16.9758 17.5993 16.2749 17.287 16.1911 16.6242C16.3511 16.2966 16.5949 16.0223 16.8006 15.7176C17.2881 16.0376 17.7148 16.4718 18.2785 16.6547V16.647Z" fill="#CF5089"/>
<path d="M17.052 8.78499C17.0139 8.84593 17.052 8.95259 17.0824 9.01354C16.9453 8.53358 16.5111 9.88202 16.0844 9.91249C15.734 9.38683 15.475 8.7088 14.8427 8.51073C14.8198 8.4574 14.8351 8.36598 14.797 8.32027C15.2541 8.25933 15.5055 7.8327 15.635 7.4137C16.1911 7.26895 16.9758 9.24208 17.052 8.77737V8.78499Z" fill="#CF5089"/>
</svg>
