<svg width="24" height="24" viewBox="0 0 24 24" fill="none" xmlns="http://www.w3.org/2000/svg">
<path d="M11.5088 19.8477C9.41724 22.7374 4.90391 23.4391 2.4546 20.5082C0.940982 18.7057 1.90419 16.1463 3.18389 14.5088C1.13362 13.807 -0.0910293 12.3347 0.00529181 10.2432C0.129133 7.72505 1.34003 4.8767 3.65173 3.77589C5.48183 2.909 7.4633 3.74837 9.12827 4.45013C9.89884 2.60627 11.1785 0.624812 13.3389 0.789934C16.1597 1.02386 17.9761 3.74837 18.1825 6.45912C19.531 6.8444 20.7556 7.06456 21.939 7.71129C23.7966 8.7433 24.4984 10.8211 23.6315 12.775C23.0535 14.0822 22.1041 15.0042 20.7143 15.816C22.1179 18.4167 21.0308 21.3476 18.6778 22.586C15.9671 24.0033 13.0086 23.0263 11.5088 19.834V19.8477Z" fill="#A32E74"/>
<path d="M14.3984 12.3622C14.7837 11.8256 15.0727 12.0045 15.0176 12.6925C15.0176 15.4307 18.4577 15.4307 19.2833 16.8618C20.1089 18.2929 19.4346 19.9303 18.4577 20.7422C17.3156 21.7054 15.6781 21.843 14.481 20.9898C11.4125 18.802 14.0269 15.2794 10.9033 16.504C10.8483 16.5178 10.8483 19.834 7.8761 20.467C6.98169 20.2468 6.05976 20.233 5.15159 20.3844C4.50486 20.3156 3.73429 19.6964 3.55541 19.1047C3.67925 18.5405 3.67925 17.9626 3.51413 17.4122C3.72053 16.4215 4.39478 15.5408 5.28919 14.8803L8.2201 12.6925C8.34394 12.0595 8.48155 11.7843 8.93563 12.3209L9.69244 12.2246C10.4492 14.2474 13.5866 16.3527 13.7379 12.9264L14.3847 12.3622H14.3984Z" fill="#CF5089"/>
<path d="M6.1836 5.17942C9.76124 5.63351 8.20634 8.02777 9.92636 9.58267C10.408 10.5734 9.99516 11.11 8.90811 10.9312C8.81179 11.6467 8.57787 11.9632 8.19258 11.9081C7.91738 11.9632 7.5321 11.5091 7.22937 11.5366C6.34872 11.7155 5.702 12.4998 4.83511 12.5824C4.27094 12.3897 3.67925 12.4173 3.14261 12.6512C2.61972 12.5411 1.95923 11.8393 1.86291 11.2889C2.01427 10.6147 2.00051 9.91292 1.78035 9.25243C2.20692 7.65625 2.92244 5.86743 4.50486 5.24822C5.06903 5.3583 5.66072 5.42711 6.19736 5.17942H6.1836Z" fill="#CF5089"/>
<path d="M13.6141 10.367C13.6554 10.5872 13.5728 10.656 13.3664 10.5459C12.5133 10.8486 9.60988 10.3808 10.2704 9.25243C11.151 8.5369 10.9859 7.60121 10.6557 6.39032C10.2841 5.02806 11.3712 2.73012 12.9811 2.52371C14.7975 2.30355 16.3936 4.47765 16.3248 6.07383C16.256 7.78009 13.0637 8.66074 13.6003 10.367H13.6141Z" fill="#CF5089"/>
<path d="M19.1044 8.27546C20.274 8.75706 21.3886 9.25243 22.1591 10.2707C21.8289 10.8073 21.9665 11.4128 22.1591 11.9632C21.8289 12.8989 20.6042 14.6602 19.4897 13.9859C18.7191 13.5181 18.1412 12.6787 17.4532 12.3209C16.7376 12.1421 16.0634 11.9769 15.3754 12.3622C15.2791 12.4998 15.1139 12.5686 15.0039 12.6925C14.7837 12.6237 14.5773 12.4998 14.3847 12.3622C13.4214 12.5686 13.16 11.9494 13.9168 11.3027C13.6554 10.9174 14.0544 10.6972 15.1002 10.6147C16.0496 9.91292 17.1367 9.36251 17.6871 8.2617C17.921 7.95897 18.7604 7.97273 19.1044 8.27546Z" fill="#CF5089"/>
<path d="M13.3664 10.5459C14.0819 10.711 14.2746 10.9587 13.9168 11.3027C13.9168 11.6742 14.3571 12.0733 14.3847 12.3622C14.481 13.2566 14.4122 14.3987 13.7654 14.9629C13.0362 15.5959 11.8803 15.4858 11.0134 14.9491C9.96764 14.2886 9.58236 13.2016 8.93563 12.3209C8.42651 12.2521 8.41275 11.7843 8.90811 10.9312C9.27964 10.5046 9.62364 10.0505 9.92636 9.58267C10.0089 9.45883 10.174 9.33499 10.2841 9.25243C10.0777 9.73403 11.9904 9.40379 13.3802 10.5459L13.3664 10.5459Z" fill="#A32E74"/>
<path d="M15.1002 10.6147C14.7975 10.8348 14.3296 11.055 13.9168 11.3027C13.9168 11.0688 13.3389 10.8486 13.3664 10.5459C13.3251 10.3945 13.504 10.3945 13.6141 10.367C14.0682 10.6422 14.5911 10.6422 15.1139 10.6147H15.1002Z" fill="#D3538B"/>
<path d="M7.88986 20.4807C7.06425 20.6596 6.00472 20.4807 5.16535 20.3982C5.92216 19.9853 7.21561 19.8615 7.88986 20.4807Z" fill="#D5548C"/>
<path d="M8.93563 12.3347C8.70171 12.4585 8.44027 12.5549 8.2201 12.7062C8.27514 12.4585 8.12378 12.1558 8.19258 11.9219C8.31642 11.5229 8.64667 11.2477 8.90811 10.9449L8.93563 12.3347Z" fill="#D6558C"/>
<path d="M17.4532 12.3347L15.3754 12.376C15.9671 11.5229 16.9303 12.0595 17.4532 12.3347Z" fill="#D4548C"/>
<path d="M1.84915 11.3027C1.75283 10.711 1.61523 9.84412 1.76659 9.26619C2.35828 9.69275 2.26196 10.7798 1.84915 11.3027Z" fill="#D6558D"/>
<path d="M6.1836 5.17942C5.88088 5.74359 4.87639 5.67479 4.4911 5.24822C4.93143 5.06934 5.72952 5.12438 6.1836 5.17942Z" fill="#D6558C"/>
<path d="M19.1044 8.27546C18.7053 8.11034 18.0999 8.3993 17.6871 8.2617C17.0679 7.78009 18.0861 7.87641 18.3338 7.87641C18.6228 7.87641 19.1457 7.90393 19.1044 8.27546Z" fill="#9D2970"/>
<path d="M22.1591 11.9769C21.6087 11.688 21.6087 10.5734 22.1591 10.2844C22.0215 10.8073 22.338 11.4816 22.1591 11.9769Z" fill="#D6558D"/>
<path d="M4.82135 12.5961C4.29846 12.6374 3.63797 12.7613 3.12885 12.6649C3.43157 12.1008 4.44982 12.1558 4.82135 12.5961Z" fill="#D6558C"/>
<path d="M3.56917 19.1185C3.41781 18.6093 3.41781 17.9351 3.52789 17.426C3.98198 17.7975 3.98198 18.7194 3.56917 19.1185Z" fill="#D6558D"/>
</svg>
