<svg width="24" height="24" viewBox="0 0 24 24" fill="none" xmlns="http://www.w3.org/2000/svg">
<path d="M11.1582 1.31934C11.6218 0.893638 12.3782 0.893638 12.8418 1.31934L22.6602 10.3428C22.8845 10.549 23 10.8203 23 11.0908V21.9326C22.9998 22.4722 22.5221 22.9999 21.8184 23H16V15.3848C16 14.2116 15.0126 13.3506 13.9092 13.3506H10.0908C8.98738 13.3506 8 14.2116 8 15.3848V23H2.18164C1.47788 22.9999 1.00019 22.4722 1 21.9326V11.0908C1 10.8203 1.11546 10.549 1.33984 10.3428L11.1582 1.31934ZM10.0908 15.3506H13.9092C13.9512 15.3506 13.9784 15.366 13.9922 15.3789C13.9961 15.3826 13.9988 15.3859 14 15.3877V23H10V15.3877C10.0012 15.3859 10.0039 15.3826 10.0078 15.3789C10.0216 15.366 10.0488 15.3506 10.0908 15.3506Z" stroke="#BB487C" stroke-width="2" stroke-linecap="round" stroke-linejoin="round"/>
</svg>
