<svg width="24" height="24" viewBox="0 0 24 24" fill="none" xmlns="http://www.w3.org/2000/svg">
<mask id="path-1-inside-1_2239_1378" fill="white">
<path d="M12 0.96C13.1972 0.960469 14.2769 1.44281 15.062 2.22516C15.8462 3.00844 16.3302 4.08563 16.3302 5.28V12.48C16.3297 13.6744 15.8462 14.7516 15.062 15.5348C14.2769 16.3172 13.1972 16.8 12 16.8C10.8028 16.7995 9.72311 16.3172 8.93799 15.5348C8.15381 14.7516 7.66986 13.6744 7.66986 12.48V5.28C7.67033 4.08563 8.15381 3.00844 8.93799 2.22516C9.72311 1.44281 10.8028 0.96 12 0.96V0C9.07706 0.00046875 6.70807 2.36391 6.7076 5.28V12.48C6.70807 15.3961 9.07706 17.7595 12 17.76C14.923 17.7595 17.292 15.3961 17.2924 12.48V5.28C17.292 2.36391 14.923 0.00046875 12 0V0.96Z"/>
<path d="M18.5507 13.8084C18.1964 15.2845 17.3535 16.5727 16.201 17.4914C15.0479 18.4102 13.5905 18.9581 11.9995 18.9586C10.4091 18.9581 8.95161 18.4102 7.7986 17.4914C6.64605 16.5727 5.80314 15.2845 5.44887 13.8084C5.38685 13.5506 5.12749 13.3917 4.86907 13.4536C4.61065 13.5155 4.45137 13.7742 4.51339 14.032C4.91888 15.7214 5.88254 17.1923 7.19813 18.2414C8.51324 19.2905 10.1854 19.9186 12 19.9186C13.8146 19.9191 15.4868 19.2905 16.8019 18.2414C18.1175 17.1923 19.0811 15.7214 19.4866 14.032C19.5487 13.7742 19.3889 13.515 19.131 13.4536C18.8725 13.3913 18.6127 13.5506 18.5507 13.8084Z"/>
<path d="M11.5189 19.4325V23.28C11.5189 23.5453 11.7341 23.76 12 23.76C12.2659 23.76 12.4811 23.5453 12.4811 23.28V19.4325C12.4811 19.1672 12.2659 18.9525 12 18.9525C11.7341 18.9525 11.5189 19.1672 11.5189 19.4325Z"/>
<path d="M7.18873 24H16.8113C17.0772 24 17.2924 23.7853 17.2924 23.52C17.2924 23.2547 17.0772 23.04 16.8113 23.04H7.18873C6.92279 23.04 6.7076 23.2547 6.7076 23.52C6.7076 23.7853 6.92279 24 7.18873 24Z"/>
</mask>
<path d="M12 0.96C13.1972 0.960469 14.2769 1.44281 15.062 2.22516C15.8462 3.00844 16.3302 4.08563 16.3302 5.28V12.48C16.3297 13.6744 15.8462 14.7516 15.062 15.5348C14.2769 16.3172 13.1972 16.8 12 16.8C10.8028 16.7995 9.72311 16.3172 8.93799 15.5348C8.15381 14.7516 7.66986 13.6744 7.66986 12.48V5.28C7.67033 4.08563 8.15381 3.00844 8.93799 2.22516C9.72311 1.44281 10.8028 0.96 12 0.96V0C9.07706 0.00046875 6.70807 2.36391 6.7076 5.28V12.48C6.70807 15.3961 9.07706 17.7595 12 17.76C14.923 17.7595 17.292 15.3961 17.2924 12.48V5.28C17.292 2.36391 14.923 0.00046875 12 0V0.96Z" fill="#222F3E"/>
<path d="M18.5507 13.8084C18.1964 15.2845 17.3535 16.5727 16.201 17.4914C15.0479 18.4102 13.5905 18.9581 11.9995 18.9586C10.4091 18.9581 8.95161 18.4102 7.7986 17.4914C6.64605 16.5727 5.80314 15.2845 5.44887 13.8084C5.38685 13.5506 5.12749 13.3917 4.86907 13.4536C4.61065 13.5155 4.45137 13.7742 4.51339 14.032C4.91888 15.7214 5.88254 17.1923 7.19813 18.2414C8.51324 19.2905 10.1854 19.9186 12 19.9186C13.8146 19.9191 15.4868 19.2905 16.8019 18.2414C18.1175 17.1923 19.0811 15.7214 19.4866 14.032C19.5487 13.7742 19.3889 13.515 19.131 13.4536C18.8725 13.3913 18.6127 13.5506 18.5507 13.8084Z" fill="#222F3E"/>
<path d="M11.5189 19.4325V23.28C11.5189 23.5453 11.7341 23.76 12 23.76C12.2659 23.76 12.4811 23.5453 12.4811 23.28V19.4325C12.4811 19.1672 12.2659 18.9525 12 18.9525C11.7341 18.9525 11.5189 19.1672 11.5189 19.4325Z" fill="#222F3E"/>
<path d="M7.18873 24H16.8113C17.0772 24 17.2924 23.7853 17.2924 23.52C17.2924 23.2547 17.0772 23.04 16.8113 23.04H7.18873C6.92279 23.04 6.7076 23.2547 6.7076 23.52C6.7076 23.7853 6.92279 24 7.18873 24Z" fill="#222F3E"/>
<path d="M12 0H11V0.96H12H13V0H12ZM12 0.96L12.0008 -1.04H12V0.96ZM15.062 2.22516L16.4754 0.810129L16.4737 0.808438L15.062 2.22516ZM16.3302 12.48L18.3302 12.4808V12.48H16.3302ZM15.062 15.5348L16.4737 16.9516L16.4754 16.9499L15.062 15.5348ZM12 16.8L11.9992 18.8H12V16.8ZM8.93799 15.5348L7.52459 16.9499L7.52628 16.9516L8.93799 15.5348ZM7.66986 5.28L5.66986 5.27921V5.28H7.66986ZM8.93799 2.22516L7.52628 0.808437L7.52459 0.81013L8.93799 2.22516ZM12 0L12.0003 -2H11.9997L12 0ZM6.7076 5.28L4.7076 5.27968V5.28H6.7076ZM6.7076 12.48H4.7076L4.7076 12.4803L6.7076 12.48ZM12 17.76L11.9997 19.76H12.0003L12 17.76ZM17.2924 12.48L19.2924 12.4803V12.48H17.2924ZM17.2924 5.28H19.2924V5.27968L17.2924 5.28ZM18.5507 13.8084L16.6062 13.3407L16.6059 13.3417L18.5507 13.8084ZM16.201 17.4914L17.4473 19.0556L17.4476 19.0553L16.201 17.4914ZM11.9995 18.9586L11.999 20.9586L12.0001 20.9586L11.9995 18.9586ZM7.7986 17.4914L6.55193 19.0553L6.55224 19.0556L7.7986 17.4914ZM5.44887 13.8084L7.39364 13.3417L7.39339 13.3407L5.44887 13.8084ZM4.51339 14.032L6.45816 13.5653L6.45792 13.5642L4.51339 14.032ZM7.19813 18.2414L8.44532 16.6779L8.44505 16.6777L7.19813 18.2414ZM12 19.9186L12.0005 17.9186H12V19.9186ZM16.8019 18.2414L15.555 16.6777L15.5547 16.6779L16.8019 18.2414ZM19.4866 14.032L17.5421 13.5642L17.5419 13.5653L19.4866 14.032ZM19.131 13.4536L18.6619 15.3978L18.6678 15.3992L19.131 13.4536ZM6.7076 23.52H4.7076H6.7076ZM12 0.96L11.9992 2.96C12.6467 2.96025 13.2249 3.21798 13.6503 3.64187L15.062 2.22516L16.4737 0.808438C15.3289 -0.332353 13.7477 -1.03932 12.0008 -1.04L12 0.96ZM15.062 2.22516L13.6486 3.64018C14.0739 4.06492 14.3302 4.63949 14.3302 5.28H16.3302H18.3302C18.3302 3.53176 17.6186 1.95195 16.4754 0.81013L15.062 2.22516ZM16.3302 5.28H14.3302V12.48H16.3302H18.3302V5.28H16.3302ZM16.3302 12.48L14.3302 12.4792C14.3299 13.1208 14.0734 13.6955 13.6486 14.1198L15.062 15.5348L16.4754 16.9499C17.619 15.8076 18.3295 14.2279 18.3302 12.4808L16.3302 12.48ZM15.062 15.5348L13.6503 14.1181C13.2245 14.5424 12.6464 14.8 12 14.8V16.8V18.8C13.748 18.8 15.3293 18.0919 16.4737 16.9516L15.062 15.5348ZM12 16.8L12.0008 14.8C11.3533 14.7997 10.7751 14.542 10.3497 14.1181L8.93799 15.5348L7.52628 16.9516C8.67113 18.0924 10.2524 18.7993 11.9992 18.8L12 16.8ZM8.93799 15.5348L10.3514 14.1198C9.92616 13.6951 9.66986 13.1205 9.66986 12.48H7.66986H5.66986C5.66986 14.2282 6.38145 15.808 7.52459 16.9499L8.93799 15.5348ZM7.66986 12.48H9.66986V5.28H7.66986H5.66986V12.48H7.66986ZM7.66986 5.28L9.66986 5.28079C9.67011 4.63917 9.92658 4.0645 10.3514 3.64018L8.93799 2.22516L7.52459 0.81013C6.38103 1.95237 5.67055 3.53208 5.66986 5.27921L7.66986 5.28ZM8.93799 2.22516L10.3497 3.64187C10.7755 3.21756 11.3536 2.96 12 2.96V0.96V-1.04C10.2521 -1.04 8.67071 -0.331939 7.52628 0.808438L8.93799 2.22516ZM12 0L11.9997 -2C7.97685 -1.99935 4.70825 1.25484 4.7076 5.27968L6.7076 5.28L8.7076 5.28032C8.70789 3.47297 10.1773 2.00029 12.0003 2L12 0ZM6.7076 5.28H4.7076V12.48H6.7076H8.7076V5.28H6.7076ZM6.7076 12.48L4.7076 12.4803C4.70825 16.5052 7.97685 19.7594 11.9997 19.76L12 17.76L12.0003 15.76C10.1773 15.7597 8.70789 14.287 8.7076 12.4797L6.7076 12.48ZM12 17.76L12.0003 19.76C16.0232 19.7594 19.2918 16.5052 19.2924 12.4803L17.2924 12.48L15.2924 12.4797C15.2921 14.287 13.8227 15.7597 11.9997 15.76L12 17.76ZM17.2924 12.48H19.2924V5.28H17.2924H15.2924V12.48H17.2924ZM17.2924 5.28L19.2924 5.27968C19.2918 1.25484 16.0232 -1.99935 12.0003 -2L12 0L11.9997 2C13.8228 2.00029 15.2921 3.47297 15.2924 5.28032L17.2924 5.28ZM18.5507 13.8084L16.6059 13.3417C16.3584 14.373 15.7678 15.279 14.9543 15.9275L16.201 17.4914L17.4476 19.0553C18.9392 17.8663 20.0344 16.1961 20.4955 14.2752L18.5507 13.8084ZM16.201 17.4914L14.9546 15.9272C14.1432 16.5738 13.1217 16.9583 11.999 16.9586L11.9995 18.9586L12.0001 20.9586C14.0592 20.958 15.9527 20.2465 17.4473 19.0556L16.201 17.4914ZM11.9995 18.9586L12.0001 16.9586C10.8779 16.9583 9.85642 16.5738 9.04496 15.9272L7.7986 17.4914L6.55224 19.0556C8.0468 20.2465 9.94025 20.958 11.999 20.9586L11.9995 18.9586ZM7.7986 17.4914L9.04527 15.9275C8.23176 15.279 7.64116 14.373 7.39364 13.3417L5.44887 13.8084L3.5041 14.2752C3.96512 16.1961 5.06034 17.8663 6.55193 19.0553L7.7986 17.4914ZM5.44887 13.8084L7.39339 13.3407C7.07278 12.0079 5.73336 11.1901 4.40336 11.5086L4.86907 13.4536L5.33478 15.3986C4.52162 15.5933 3.70091 15.0933 3.50434 14.2762L5.44887 13.8084ZM4.86907 13.4536L4.40336 11.5086C3.0758 11.8264 2.24689 13.1614 2.56887 14.4998L4.51339 14.032L6.45792 13.5642C6.65585 14.387 6.14551 15.2045 5.33478 15.3986L4.86907 13.4536ZM4.51339 14.032L2.56863 14.4988C3.08091 16.6332 4.29696 18.486 5.95121 19.8051L7.19813 18.2414L8.44505 16.6777C7.46813 15.8987 6.75684 14.8097 6.45816 13.5653L4.51339 14.032ZM7.19813 18.2414L5.95093 19.8049C7.60826 21.1269 9.71708 21.9186 12 21.9186V19.9186V17.9186C10.6538 17.9186 9.41822 17.454 8.44532 16.6779L7.19813 18.2414ZM12 19.9186L11.9995 21.9186C14.2831 21.9192 16.3921 21.1267 18.0491 19.8049L16.8019 18.2414L15.5547 16.6779C14.5815 17.4542 13.346 17.9189 12.0005 17.9186L12 19.9186ZM16.8019 18.2414L18.0488 19.8051C19.7031 18.486 20.9191 16.6332 21.4314 14.4988L19.4866 14.032L17.5419 13.5653C17.2432 14.8097 16.5319 15.8987 15.555 16.6777L16.8019 18.2414ZM19.4866 14.032L21.4312 14.4998C21.7529 13.1622 20.9244 11.8246 19.5941 11.508L19.131 13.4536L18.6678 15.3992C17.8534 15.2054 17.3444 14.3862 17.5421 13.5642L19.4866 14.032ZM19.131 13.4536L19.6 11.5094C18.2663 11.1876 16.9264 12.0094 16.6062 13.3407L18.5507 13.8084L20.4952 14.2762C20.299 15.0918 19.4787 15.5949 18.6619 15.3978L19.131 13.4536ZM11.5189 19.4325H9.51888V23.28H11.5189H13.5189V19.4325H11.5189ZM11.5189 23.28H9.51888C9.51888 24.6543 10.6339 25.76 12 25.76V23.76V21.76C12.8342 21.76 13.5189 22.4363 13.5189 23.28H11.5189ZM12 23.76V25.76C13.3661 25.76 14.4811 24.6543 14.4811 23.28H12.4811H10.4811C10.4811 22.4363 11.1658 21.76 12 21.76V23.76ZM12.4811 23.28H14.4811V19.4325H12.4811H10.4811V23.28H12.4811ZM12.4811 19.4325H14.4811C14.4811 18.0582 13.3661 16.9525 12 16.9525V18.9525V20.9525C11.1658 20.9525 10.4811 20.2762 10.4811 19.4325H12.4811ZM12 18.9525V16.9525C10.6339 16.9525 9.51888 18.0582 9.51888 19.4325H11.5189H13.5189C13.5189 20.2762 12.8342 20.9525 12 20.9525V18.9525ZM7.18873 24V26H16.8113V24V22H7.18873V24ZM16.8113 24V26C18.1774 26 19.2924 24.8943 19.2924 23.52H17.2924H15.2924C15.2924 22.6763 15.9771 22 16.8113 22V24ZM17.2924 23.52H19.2924C19.2924 22.1457 18.1774 21.04 16.8113 21.04V23.04V25.04C15.9771 25.04 15.2924 24.3637 15.2924 23.52H17.2924ZM16.8113 23.04V21.04H7.18873V23.04V25.04H16.8113V23.04ZM7.18873 23.04V21.04C5.82265 21.04 4.7076 22.1457 4.7076 23.52H6.7076H8.7076C8.7076 24.3637 8.02294 25.04 7.18873 25.04V23.04ZM6.7076 23.52H4.7076C4.7076 24.8943 5.82266 26 7.18873 26V24V22C8.02293 22 8.7076 22.6763 8.7076 23.52H6.7076Z" fill="#BB487C" mask="url(#path-1-inside-1_2239_1378)"/>
</svg>
