<svg width="24" height="24" viewBox="0 0 24 24" fill="none" xmlns="http://www.w3.org/2000/svg">
<path d="M13.155 0.0843026C9.1425 -0.541559 5.04413 2.39304 4.58995 6.37422C3.84251 12.9353 7.9087 15.7413 11.0308 23.2064C11.2275 23.6793 11.7281 24.0722 12.1394 23.9888C12.4326 23.9296 12.776 23.6063 12.9619 23.0534C15.7049 14.8546 19.417 14.4513 19.4993 7.82761C19.5458 3.97856 17.2785 0.72755 13.155 0.0843026ZM11.9069 20.5743L7.75134 13.3352C6.24217 10.8283 5.80587 7.94583 6.73927 5.17465C7.57968 3.24838 9.37138 2.10792 11.349 1.86106C13.4304 1.60376 15.5511 2.36522 16.8314 4.19413C18.3585 7.19827 17.9114 10.7066 16.0089 13.4743C14.4496 15.6891 13.248 17.8205 11.9034 20.5709L11.9069 20.5743Z" fill="#A53075"/>
<path d="M16.8351 4.19417C15.5548 2.36179 13.4341 1.60032 11.3527 1.8611C9.37506 2.10797 7.58336 3.24843 6.74295 5.17469C5.80955 7.94587 6.24585 10.8283 7.75502 13.3352L11.9106 20.5744C13.2553 17.8241 14.4533 15.6926 16.0161 13.4778C17.9187 10.7101 18.3657 7.20179 16.8387 4.19765L16.8351 4.19417ZM14.2852 9.88256C13.2016 11.2003 11.5244 11.5828 10.2906 11.0022C8.692 10.2511 8.36298 8.52305 9.02101 6.93753C9.80063 5.06343 11.8284 4.38541 13.4305 5.19903C15.2937 6.14825 15.7193 8.14058 14.2852 9.88604V9.88256Z" fill="#D1518B"/>
<path d="M13.4305 5.19903C11.8284 4.38193 9.79706 5.06343 9.02101 6.93753C8.36298 8.52305 8.692 10.2511 10.2906 11.0022C11.5244 11.5828 13.2016 11.2038 14.2852 9.88256C15.7193 8.1371 15.2936 6.14473 13.4304 5.19551L13.4305 5.19903ZM12.6794 9.02022C12.3361 9.42703 11.3991 9.85123 10.8591 9.30534C10.0544 8.48824 10.6803 6.96531 11.7138 6.58631C12.2467 6.3916 13.0335 6.80884 13.2731 7.39993C13.5735 8.15097 12.9727 8.67252 12.683 9.02022H12.6794Z" fill="#A53075"/>
</svg>
