<svg width="15" height="24" viewBox="0 0 15 24" fill="none" xmlns="http://www.w3.org/2000/svg">
<path d="M8.65505 0.0843026C4.6425 -0.541559 0.544128 2.39304 0.089945 6.37422C-0.65749 12.9353 3.4087 15.7413 6.53076 23.2064C6.72745 23.6793 7.22812 24.0722 7.63939 23.9888C7.93264 23.9296 8.27596 23.6063 8.46193 23.0534C11.2049 14.8546 14.917 14.4513 14.9993 7.82761C15.0458 3.97856 12.7785 0.72755 8.65505 0.0843026ZM7.40694 20.5743L3.25134 13.3352C1.74217 10.8283 1.30587 7.94583 2.23927 5.17465C3.07968 3.24838 4.87138 2.10792 6.84904 1.86106C8.93042 1.60376 11.0511 2.36522 12.3314 4.19413C13.8585 7.19827 13.4114 10.7066 11.5089 13.4743C9.94965 15.6891 8.74803 17.8205 7.40336 20.5709L7.40694 20.5743Z" fill="#A53075"/>
<path d="M12.3351 4.19417C11.0548 2.36179 8.9341 1.60032 6.85272 1.8611C4.87506 2.10797 3.08336 3.24843 2.24295 5.17469C1.30955 7.94587 1.74585 10.8283 3.25502 13.3352L7.41062 20.5744C8.75528 17.8241 9.95333 15.6926 11.5161 13.4778C13.4187 10.7101 13.8657 7.20179 12.3387 4.19765L12.3351 4.19417ZM9.78524 9.88256C8.70164 11.2003 7.02438 11.5828 5.79058 11.0022C4.192 10.2511 3.86298 8.52305 4.52101 6.93753C5.30063 5.06343 7.32836 4.38541 8.93052 5.19903C10.7937 6.14825 11.2193 8.14058 9.78524 9.88604V9.88256Z" fill="#D1518B"/>
<path d="M8.93052 5.19903C7.32836 4.38193 5.29706 5.06343 4.52101 6.93753C3.86298 8.52305 4.192 10.2511 5.79058 11.0022C7.02438 11.5828 8.70164 11.2038 9.78524 9.88256C11.2193 8.1371 10.7936 6.14473 8.93042 5.19551L8.93052 5.19903ZM8.17941 9.02022C7.83609 9.42703 6.89911 9.85123 6.3591 9.30534C5.55444 8.48824 6.18029 6.96531 7.21382 6.58631C7.74668 6.3916 8.53345 6.80884 8.77306 7.39993C9.07347 8.15097 8.47266 8.67252 8.18298 9.02022H8.17941Z" fill="#A53075"/>
</svg>
