<svg width="24" height="24" viewBox="0 0 24 24" fill="none" xmlns="http://www.w3.org/2000/svg">
<path d="M20.6266 10.2604C20.9238 9.54012 21.4853 8.70668 22.0497 8.04885C24.6137 11.7845 24.6017 16.4785 22.2959 20.4314C21.9896 20.9553 21.0109 21.5 20.3924 21.5H3.85267C2.77184 21.5 1.91919 20.9553 1.4148 20.0087C-1.15518 15.1986 -0.137399 9.42701 3.76561 5.77773C7.6506 2.14333 13.5682 1.3456 18.3058 4.32516C17.7534 4.89964 16.9578 5.43542 16.1592 5.79261C12.2141 4.00369 7.80072 4.86987 4.98154 7.85835C2.12334 10.8885 1.51087 15.3534 3.64251 19.1187L20.2213 19.1366C21.8485 16.5529 22.0587 13.3859 20.6236 10.2575L20.6266 10.2604Z" fill="#BB487C"/>
<path d="M13.7063 15.9427C12.7816 17.2733 10.821 16.7851 10.1125 15.8534C9.0797 14.4872 9.63813 13.0435 10.9922 12.1803L19.894 6.50699C17.9155 9.9241 15.8919 12.7876 13.7033 15.9427H13.7063Z" fill="#BB487C"/>
</svg>
