<svg width="24" height="24" viewBox="0 0 24 24" fill="none" xmlns="http://www.w3.org/2000/svg">
<path d="M11.9998 7.13055C11.3604 7.13055 10.7272 7.2565 10.1364 7.50121C9.54567 7.74591 9.00889 8.10458 8.55673 8.55674C8.10457 9.0089 7.7459 9.54568 7.5012 10.1365C7.25649 10.7272 7.13054 11.3604 7.13054 11.9999C7.13054 12.6393 7.25649 13.2725 7.5012 13.8633C7.7459 14.454 8.10457 14.9908 8.55673 15.443C9.00889 15.8951 9.54567 16.2538 10.1364 16.4985C10.7272 16.7432 11.3604 16.8692 11.9998 16.8692C13.2913 16.8692 14.5298 16.3561 15.443 15.443C16.3561 14.5298 16.8692 13.2913 16.8692 11.9999C16.8692 10.7084 16.3561 9.46991 15.443 8.55674C14.5298 7.64357 13.2913 7.13055 11.9998 7.13055ZM8.63064 11.9999C8.63064 11.1063 8.98561 10.2493 9.61746 9.61747C10.2493 8.98562 11.1063 8.63065 11.9998 8.63065C12.8934 8.63065 13.7504 8.98562 14.3822 9.61747C15.0141 10.2493 15.3691 11.1063 15.3691 11.9999C15.3691 12.8934 15.0141 13.7504 14.3822 14.3822C13.7504 15.0141 12.8934 15.3691 11.9998 15.3691C11.1063 15.3691 10.2493 15.0141 9.61746 14.3822C8.98561 13.7504 8.63064 12.8934 8.63064 11.9999Z" fill="#D0508A"/>
<path d="M14.6942 2.01388C13.9036 -0.671292 10.0964 -0.671292 9.30583 2.01388L9.16482 2.49241C9.10961 2.67985 9.01316 2.85256 8.88253 2.99787C8.7519 3.14319 8.59041 3.25744 8.40989 3.33224C8.22937 3.40703 8.0344 3.44049 7.83927 3.43014C7.64414 3.4198 7.4538 3.36592 7.28221 3.27245L6.84418 3.03244C4.38402 1.69436 1.69436 4.38552 3.03394 6.84418L3.27245 7.28221C3.36592 7.4538 3.4198 7.64414 3.43014 7.83927C3.44049 8.0344 3.40703 8.22937 3.33224 8.40989C3.25744 8.59041 3.14319 8.7519 2.99787 8.88253C2.85256 9.01316 2.67985 9.10961 2.49241 9.16482L2.01388 9.30583C-0.671292 10.0964 -0.671292 13.9036 2.01388 14.6942L2.49241 14.8352C2.67985 14.8904 2.85256 14.9868 2.99787 15.1175C3.14319 15.2481 3.25744 15.4096 3.33224 15.5901C3.40703 15.7706 3.44049 15.9656 3.43014 16.1607C3.4198 16.3559 3.36592 16.5462 3.27245 16.7178L3.03244 17.1558C1.69436 19.616 4.38402 22.3071 6.84418 20.9661L7.28221 20.7275C7.4538 20.6341 7.64414 20.5802 7.83927 20.5699C8.0344 20.5595 8.22937 20.593 8.40989 20.6678C8.59041 20.7426 8.7519 20.8568 8.88253 21.0021C9.01316 21.1474 9.10961 21.3202 9.16482 21.5076L9.30583 21.9861C10.0964 24.6713 13.9036 24.6713 14.6942 21.9861L14.8352 21.5076C14.8904 21.3202 14.9868 21.1474 15.1175 21.0021C15.2481 20.8568 15.4096 20.7426 15.5901 20.6678C15.7706 20.593 15.9656 20.5595 16.1607 20.5699C16.3559 20.5802 16.5462 20.6341 16.7178 20.7275L17.1558 20.9676C19.616 22.3071 22.3071 19.6145 20.9661 17.1558L20.7275 16.7178C20.6341 16.5462 20.5802 16.3559 20.5699 16.1607C20.5595 15.9656 20.593 15.7706 20.6678 15.5901C20.7426 15.4096 20.8568 15.2481 21.0021 15.1175C21.1474 14.9868 21.3202 14.8904 21.5076 14.8352L21.9861 14.6942C24.6713 13.9036 24.6713 10.0964 21.9861 9.30583L21.5076 9.16482C21.3202 9.10961 21.1474 9.01316 21.0021 8.88253C20.8568 8.7519 20.7426 8.59041 20.6678 8.40989C20.593 8.22937 20.5595 8.0344 20.5699 7.83927C20.5802 7.64414 20.6341 7.4538 20.7275 7.28221L20.9676 6.84418C22.3071 4.38402 19.6145 1.69436 17.1558 3.03394L16.7178 3.27245C16.5462 3.36592 16.3559 3.4198 16.1607 3.43014C15.9656 3.44049 15.7706 3.40703 15.5901 3.33224C15.4096 3.25744 15.2481 3.14319 15.1175 2.99787C14.9868 2.85256 14.8904 2.67985 14.8352 2.49241L14.6942 2.01388ZM10.7444 2.4384C11.1134 1.18582 12.8866 1.18582 13.2556 2.4384L13.3966 2.91693C13.5151 3.31909 13.7222 3.68961 14.0025 4.00135C14.2829 4.31309 14.6294 4.55813 15.0168 4.71851C15.4042 4.8789 15.8225 4.95056 16.2412 4.92824C16.6599 4.90592 17.0682 4.79019 17.4363 4.58954L17.8729 4.34952C19.0189 3.72698 20.273 4.97956 19.649 6.12713L19.4105 6.56516C19.2101 6.93332 19.0947 7.34165 19.0726 7.76022C19.0505 8.17879 19.1224 8.59699 19.2829 8.98419C19.4434 9.37138 19.6885 9.71776 20.0003 9.99794C20.312 10.2781 20.6825 10.485 21.0846 10.6034L21.5616 10.7444C22.8142 11.1134 22.8142 12.8866 21.5616 13.2556L21.0831 13.3966C20.6809 13.5151 20.3104 13.7222 19.9986 14.0025C19.6869 14.2829 19.4419 14.6294 19.2815 15.0168C19.1211 15.4042 19.0494 15.8225 19.0718 16.2412C19.0941 16.6599 19.2098 17.0682 19.4105 17.4363L19.6505 17.8729C20.273 19.0189 19.0204 20.273 17.8729 19.649L17.4363 19.4105C17.0681 19.2098 16.6597 19.0942 16.2409 19.0719C15.8222 19.0497 15.4037 19.1215 15.0164 19.282C14.629 19.4426 14.2824 19.6878 14.0021 19.9997C13.7219 20.3116 13.515 20.6823 13.3966 21.0846L13.2556 21.5616C12.8866 22.8142 11.1134 22.8142 10.7444 21.5616L10.6034 21.0831C10.4848 20.6811 10.2778 20.3108 9.99757 19.9992C9.71732 19.6876 9.37092 19.4427 8.98375 19.2823C8.59657 19.122 8.17842 19.0502 7.75994 19.0724C7.34145 19.0946 6.93322 19.2101 6.56516 19.4105L6.12713 19.6505C4.98106 20.273 3.72698 19.0204 4.35102 17.8729L4.58954 17.4363C4.79048 17.0682 4.90643 16.6597 4.9289 16.2408C4.95136 15.822 4.87977 15.4034 4.71936 15.0159C4.55896 14.6283 4.31381 14.2816 4.00192 14.0011C3.69002 13.7206 3.31929 13.5136 2.91693 13.3951L2.4384 13.2541C1.18582 12.8851 1.18582 11.1119 2.4384 10.7429L2.91693 10.6019C3.31867 10.4833 3.68879 10.2763 4.00021 9.99616C4.31164 9.71601 4.55648 9.36978 4.71683 8.98279C4.87717 8.59581 4.94896 8.17787 4.92693 7.75956C4.90491 7.34126 4.78963 6.93317 4.58954 6.56516L4.34952 6.12713C3.72698 4.98106 4.97956 3.72698 6.12713 4.35102L6.56516 4.58954C6.93322 4.78991 7.34145 4.90542 7.75994 4.92759C8.17842 4.94976 8.59657 4.87803 8.98375 4.71767C9.37092 4.5573 9.71732 4.31236 9.99757 4.00078C10.2778 3.6892 10.4848 3.31888 10.6034 2.91693L10.7444 2.4384Z" fill="#D0508A"/>
</svg>
