<?xml version="1.0" encoding="UTF-8"?>
<svg id="Calque_1" xmlns="http://www.w3.org/2000/svg" version="1.1" viewBox="0 0 24 24">
  <!-- Generator: Adobe Illustrator 30.2.1, SVG Export Plug-In . SVG Version: 2.1.1 Build 1)  -->
  <defs>
    <style>
      .st0 {
        fill: none;
        stroke: #bb487c;
        stroke-miterlimit: 10;
        stroke-width: 2px;
      }
    </style>
  </defs>
  <path class="st0" d="M14.5,23h7.3c.7,0,1.2-.5,1.2-1.1v-10.8c0-.3-.1-.5-.3-.7L12.8,1.3c-.5-.4-1.2-.4-1.7,0L1.3,10.3c-.2.2-.3.5-.3.7v10.9c0,.5.5,1.1,1.2,1.1h7.3"/>
  <path class="st0" d="M14.5,22v-6.3c0-.4-.4-.7-.8-.7h-3.4c-.4,0-.8.3-.8.7v6.3"/>
  <line class="st0" x1="14.5" y1="23" x2="9.5" y2="23"/>
</svg>