<svg width="24" height="24" viewBox="0 0 24 24" fill="none" xmlns="http://www.w3.org/2000/svg">
<path d="M18.1128 8.33333C18.1128 7.68503 17.8552 7.06327 17.3967 6.60485C16.9383 6.14643 16.3165 5.88889 15.6681 5.88889M15.6681 15.6667C17.2107 15.6662 18.7139 15.1794 19.9639 14.2755C21.2139 13.3715 22.147 12.0965 22.6305 10.6318C23.114 9.16699 23.1232 7.58709 22.657 6.11676C22.1907 4.64643 21.2726 3.36055 20.0333 2.44202C18.794 1.52348 17.2966 1.01907 15.7541 1.00053C14.2116 0.981987 12.7025 1.45026 11.4415 2.33873C10.1805 3.22721 9.23176 4.49065 8.73027 5.94934C8.22878 7.40804 8.20005 8.98771 8.64819 10.4637L1.35815 17.753C1.1289 17.9822 1.00007 18.293 1 18.6171V21.7778C1 22.1019 1.12878 22.4128 1.35802 22.642C1.58725 22.8712 1.89816 23 2.22234 23H4.66702C4.99121 23 5.30211 22.8712 5.53135 22.642C5.76058 22.4128 5.88936 22.1019 5.88936 21.7778C5.88936 21.4536 6.01815 21.1427 6.24738 20.9135C6.47661 20.6843 6.78752 20.5556 7.1117 20.5556C7.43589 20.5556 7.7468 20.4268 7.97603 20.1976C8.20526 19.9684 8.33405 19.6575 8.33405 19.3333C8.33405 19.0092 8.46283 18.6983 8.69206 18.4691C8.92129 18.2399 9.2322 18.1111 9.55639 18.1111H10.2727C10.5968 18.111 10.9077 17.9822 11.1369 17.753L13.5376 15.3526C14.2284 15.5615 14.9463 15.6674 15.6681 15.6667Z" stroke="#BB487C" stroke-width="2" stroke-linecap="round" stroke-linejoin="round"/>
</svg>
