<svg width="24" height="24" viewBox="0 0 24 24" fill="none" xmlns="http://www.w3.org/2000/svg">
<path d="M9.44345 9.89224C9.81972 9.48796 9.79701 8.8552 9.39274 8.47893C8.98846 8.10266 8.35571 8.12536 7.97943 8.52964L8.71144 9.21094L9.44345 9.89224ZM7.60081 12.0004H6.60081H7.60081ZM7.97943 15.4712C8.35571 15.8755 8.98846 15.8982 9.39274 15.5219C9.79701 15.1457 9.81972 14.5129 9.44345 14.1086L8.71144 14.7899L7.97943 15.4712ZM14.5575 14.1086C14.1812 14.5129 14.2039 15.1457 14.6082 15.5219C15.0125 15.8982 15.6452 15.8755 16.0215 15.4712L15.2895 14.7899L14.5575 14.1086ZM16.0215 8.52964C15.6452 8.12536 15.0125 8.10266 14.6082 8.47893C14.2039 8.8552 14.1812 9.48796 14.5575 9.89224L15.2895 9.21094L16.0215 8.52964ZM7.08979 7.68065C7.47619 7.28605 7.46955 6.65292 7.07495 6.26651C6.68035 5.88011 6.04722 5.88675 5.66081 6.28135L6.3753 6.981L7.08979 7.68065ZM4.30054 12H3.30054H4.30054ZM5.66081 17.7186C6.04722 18.1132 6.68035 18.1199 7.07495 17.7335C7.46955 17.3471 7.47619 16.714 7.08979 16.3194L6.3753 17.019L5.66081 17.7186ZM16.9102 16.3194C16.5238 16.714 16.5305 17.3471 16.9251 17.7335C17.3197 18.1199 17.9528 18.1132 18.3392 17.7186L17.6247 17.019L16.9102 16.3194ZM19.6995 12L18.6995 12L19.6995 12ZM18.3392 6.28135C17.9528 5.88675 17.3197 5.88011 16.9251 6.26651C16.5305 6.65292 16.5238 7.28605 16.9102 7.68065L17.6247 6.981L18.3392 6.28135ZM19.4736 18.3172C19.0965 18.7207 19.1179 19.3535 19.5214 19.7306C19.9249 20.1077 20.5577 20.0863 20.9348 19.6828L20.2042 19L19.4736 18.3172ZM20.9348 4.31717C20.5577 3.91368 19.9249 3.89231 19.5214 4.26942C19.1179 4.64654 19.0965 5.27934 19.4736 5.68283L20.2042 5L20.9348 4.31717ZM4.52637 5.68283C4.90348 5.27934 4.8821 4.64654 4.47862 4.26942C4.07513 3.89231 3.44233 3.91368 3.06521 4.31717L3.79579 5L4.52637 5.68283ZM1 12H0H1ZM3.06521 19.6828C3.44233 20.0863 4.07513 20.1077 4.47862 19.7306C4.8821 19.3535 4.90348 18.7207 4.52637 18.3172L3.79579 19L3.06521 19.6828ZM13.4667 12.0009H12.4667C12.4667 12.1785 12.3021 12.4009 12 12.4009V13.4009V14.4009C13.318 14.4009 14.4667 13.3697 14.4667 12.0009H13.4667ZM12 13.4009V12.4009C11.6979 12.4009 11.5333 12.1785 11.5333 12.0009H10.5333H9.53333C9.53333 13.3697 10.682 14.4009 12 14.4009V13.4009ZM10.5333 12.0009H11.5333C11.5333 11.8233 11.6979 11.6009 12 11.6009V10.6009V9.60088C10.682 9.60088 9.53333 10.6321 9.53333 12.0009H10.5333ZM12 10.6009V11.6009C12.3021 11.6009 12.4667 11.8233 12.4667 12.0009H13.4667H14.4667C14.4667 10.6321 13.318 9.60088 12 9.60088V10.6009ZM8.71144 9.21094L7.97943 8.52964C7.0958 9.47904 6.60081 10.7135 6.60081 12.0004H7.60081H8.60081C8.60081 11.2309 8.89616 10.4803 9.44345 9.89224L8.71144 9.21094ZM7.60081 12.0004H6.60081C6.60081 13.2874 7.0958 14.5218 7.97943 15.4712L8.71144 14.7899L9.44345 14.1086C8.89616 13.5206 8.60081 12.77 8.60081 12.0004H7.60081ZM15.2895 14.7899L16.0215 15.4712C16.9051 14.5218 17.4001 13.2874 17.4001 12.0004H16.4001H15.4001C15.4001 12.77 15.1048 13.5206 14.5575 14.1086L15.2895 14.7899ZM16.4001 12.0004H17.4001C17.4001 10.7135 16.9051 9.47904 16.0215 8.52964L15.2895 9.21094L14.5575 9.89224C15.1048 10.4803 15.4001 11.2309 15.4001 12.0004H16.4001ZM6.3753 6.981L5.66081 6.28135C4.14924 7.82499 3.30054 9.86835 3.30054 12H4.30054H5.30054C5.30054 10.4045 5.93505 8.85988 7.08979 7.68065L6.3753 6.981ZM4.30054 12H3.30054C3.30054 14.1316 4.14924 16.175 5.66081 17.7186L6.3753 17.019L7.08979 16.3194C5.93505 15.1401 5.30054 13.5955 5.30054 12H4.30054ZM17.6247 17.019L18.3392 17.7186C19.8508 16.175 20.6995 14.1316 20.6995 12L19.6995 12L18.6995 12C18.6995 13.5955 18.0649 15.1401 16.9102 16.3194L17.6247 17.019ZM19.6995 12L20.6995 12C20.6995 9.86835 19.8508 7.82499 18.3392 6.28135L17.6247 6.981L16.9102 7.68065C18.0649 8.85988 18.6995 10.4045 18.6995 12L19.6995 12ZM20.2042 19L20.9348 19.6828C22.9045 17.5754 24 14.8413 24 12H23H22C22 14.3224 21.1053 16.5714 19.4736 18.3172L20.2042 19ZM23 12H24C24 9.15868 22.9045 6.42457 20.9348 4.31717L20.2042 5L19.4736 5.68283C21.1053 7.42856 22 9.67764 22 12H23ZM3.79579 5L3.06521 4.31717C1.09555 6.42457 0 9.15868 0 12L1 12L2 12C2 9.67765 2.89473 7.42856 4.52637 5.68283L3.79579 5ZM1 12H0C0 14.8413 1.09555 17.5754 3.06521 19.6828L3.79579 19L4.52637 18.3172C2.89473 16.5714 2 14.3224 2 12H1Z" fill="#BB487C"/>
</svg>
