<svg width="23" height="24" viewBox="0 0 23 24" fill="none" xmlns="http://www.w3.org/2000/svg">
<path d="M22.8083 5.2L18.0167 0.2C17.825 0.2 17.4417 0 17.25 0H1.91667C0.766667 0 0 0.8 0 2V22C0 23.2 0.766667 24 1.91667 24H21.0833C22.2333 24 23 23.2 23 22V6C23 5.8 22.8083 5.4 22.8083 5.2ZM7.66667 2H15.3333V6H7.66667V2ZM15.3333 22H7.66667V14H15.3333V22ZM17.25 22V14C17.25 12.8 16.4833 12 15.3333 12H7.66667C6.51667 12 5.75 12.8 5.75 14V22H1.91667V2H5.75V6C5.75 7.2 6.51667 8 7.66667 8H15.3333C16.4833 8 17.25 7.2 17.25 6V2.4L21.0833 6.4V22H17.25Z" fill="#BB487C"/>
</svg>
