<svg width="24" height="24" viewBox="0 0 24 24" fill="none" xmlns="http://www.w3.org/2000/svg">
<path d="M17.746 16.4594C17.0053 16.4594 16.3154 16.6757 15.7336 17.0476L9.86228 12.9307C9.95653 12.6003 10.0081 12.2517 10.0081 11.8909C10.0081 11.53 9.95653 11.1814 9.86228 10.851L15.5751 6.84529C16.1881 7.28257 16.9368 7.54056 17.7459 7.54056C19.8192 7.54056 21.4999 5.85253 21.4999 3.7703C21.4999 1.68808 19.8192 0 17.746 0C15.6727 0 13.9919 1.68802 13.9919 3.77025C13.9919 4.04525 14.0221 4.31308 14.0777 4.57133L8.21981 8.67879C7.64801 8.32509 6.97491 8.12064 6.25403 8.12064C4.18076 8.12064 2.5 9.80866 2.5 11.8909C2.5 13.9731 4.18071 15.6611 6.25403 15.6611C6.97486 15.6611 7.64801 15.4567 8.21981 15.103L14.1229 19.2422C14.038 19.557 13.9919 19.8879 13.9919 20.2297C13.9919 22.312 15.6727 24 17.746 24C19.8192 24 21.5 22.312 21.5 20.2297C21.5 18.1475 19.8192 16.4594 17.746 16.4594Z" fill="#BB487C"/>
</svg>
