<svg width="190" height="37" viewBox="0 0 190 37" fill="none" xmlns="http://www.w3.org/2000/svg">
<path d="M117.83 33.96V25.6571H122.077C123.168 25.6571 123.982 25.8587 124.52 26.262C125.058 26.6574 125.327 27.1793 125.327 27.8277C125.327 28.2547 125.212 28.6303 124.983 28.9545C124.761 29.2708 124.445 29.5239 124.034 29.7136C123.63 29.8955 123.148 29.9864 122.587 29.9864L122.824 29.4171C123.409 29.4171 123.919 29.508 124.354 29.6899C124.789 29.8639 125.125 30.1209 125.362 30.4609C125.607 30.793 125.73 31.2002 125.73 31.6826C125.73 32.4022 125.437 32.9636 124.852 33.3669C124.275 33.7623 123.429 33.96 122.314 33.96H117.83ZM120.155 32.2638H122.124C122.527 32.2638 122.832 32.1966 123.037 32.0622C123.251 31.9198 123.358 31.7063 123.358 31.4217C123.358 31.137 123.251 30.9274 123.037 30.793C122.832 30.6507 122.527 30.5795 122.124 30.5795H119.989V28.9545H121.768C122.164 28.9545 122.46 28.8873 122.658 28.7529C122.855 28.6184 122.954 28.4168 122.954 28.148C122.954 27.8791 122.855 27.6814 122.658 27.5549C122.46 27.4205 122.164 27.3532 121.768 27.3532H120.155V32.2638ZM127.943 36.3678C127.603 36.3678 127.259 36.3124 126.911 36.2017C126.571 36.0989 126.294 35.9606 126.08 35.7866L126.863 34.209C126.998 34.3277 127.152 34.4186 127.326 34.4819C127.508 34.553 127.686 34.5886 127.86 34.5886C128.105 34.5886 128.298 34.5333 128.441 34.4225C128.583 34.3118 128.706 34.1379 128.809 33.9007L129.105 33.1534L129.283 32.928L131.465 27.5312H133.612L130.837 34.2209C130.615 34.7744 130.358 35.2054 130.066 35.5138C129.781 35.8301 129.461 36.0515 129.105 36.178C128.757 36.3045 128.37 36.3678 127.943 36.3678ZM128.82 34.2328L125.986 27.5312H128.298L130.386 32.7264L128.82 34.2328ZM141.893 34.126C141.237 34.126 140.628 34.0232 140.066 33.8176C139.513 33.6041 139.031 33.3036 138.619 32.9162C138.216 32.5287 137.9 32.074 137.67 31.5521C137.441 31.0223 137.326 30.4411 137.326 29.8085C137.326 29.1759 137.441 28.5987 137.67 28.0768C137.9 27.547 138.216 27.0883 138.619 26.7009C139.031 26.3134 139.513 26.0169 140.066 25.8113C140.628 25.5978 141.237 25.491 141.893 25.491C142.66 25.491 143.344 25.6255 143.945 25.8943C144.554 26.1632 145.06 26.5506 145.463 27.0567L143.969 28.4089C143.7 28.0926 143.403 27.8514 143.079 27.6854C142.763 27.5193 142.407 27.4363 142.012 27.4363C141.672 27.4363 141.359 27.4916 141.075 27.6023C140.79 27.713 140.545 27.8751 140.339 28.0886C140.142 28.2942 139.983 28.5433 139.865 28.8359C139.754 29.1285 139.699 29.4527 139.699 29.8085C139.699 30.1644 139.754 30.4886 139.865 30.7811C139.983 31.0737 140.142 31.3268 140.339 31.5403C140.545 31.7459 140.79 31.904 141.075 32.0147C141.359 32.1254 141.672 32.1808 142.012 32.1808C142.407 32.1808 142.763 32.0977 143.079 31.9317C143.403 31.7656 143.7 31.5245 143.969 31.2082L145.463 32.5603C145.06 33.0585 144.554 33.446 143.945 33.7227C143.344 33.9916 142.66 34.126 141.893 34.126ZM147.409 33.96V26.4992L148.417 27.4719H145.867V25.6571H149.758V33.96H147.409ZM153.912 34.126C153.343 34.126 152.77 34.0549 152.192 33.9125C151.615 33.7702 151.117 33.5685 150.698 33.3076L151.54 31.5403C151.88 31.7617 152.248 31.9317 152.643 32.0503C153.046 32.1689 153.446 32.2282 153.841 32.2282C154.236 32.2282 154.557 32.1531 154.802 32.0029C155.047 31.8447 155.17 31.6273 155.17 31.3505C155.17 31.1844 155.122 31.0381 155.027 30.9116C154.932 30.7772 154.77 30.6784 154.541 30.6151C154.312 30.5439 153.983 30.5083 153.556 30.5083H151.303L151.718 25.6571H157.008V27.4719H152.548L153.746 26.4399L153.473 29.7136L152.275 28.6817H154.114C154.936 28.6817 155.597 28.8003 156.095 29.0375C156.593 29.2669 156.957 29.5792 157.186 29.9746C157.415 30.3621 157.53 30.8009 157.53 31.2912C157.53 31.7814 157.399 32.244 157.139 32.6789C156.885 33.106 156.494 33.4539 155.964 33.7227C155.434 33.9916 154.75 34.126 153.912 34.126ZM163.857 33.96V27.5193H161.307V25.6571H168.744V27.5193H166.206V33.96H163.857ZM172.09 34.0667C171.386 34.0667 170.761 33.9244 170.216 33.6397C169.67 33.355 169.239 32.9636 168.923 32.4654C168.614 31.9594 168.46 31.3821 168.46 30.7337C168.46 30.0853 168.614 29.512 168.923 29.0138C169.239 28.5157 169.67 28.1282 170.216 27.8514C170.761 27.5668 171.386 27.4244 172.09 27.4244C172.794 27.4244 173.418 27.5668 173.964 27.8514C174.517 28.1282 174.948 28.5157 175.257 29.0138C175.565 29.512 175.719 30.0853 175.719 30.7337C175.719 31.3821 175.565 31.9594 175.257 32.4654C174.948 32.9636 174.517 33.355 173.964 33.6397C173.418 33.9244 172.794 34.0667 172.09 34.0667ZM172.09 32.2757C172.351 32.2757 172.58 32.2164 172.778 32.0977C172.983 31.9791 173.145 31.8052 173.264 31.5759C173.383 31.3386 173.442 31.0579 173.442 30.7337C173.442 30.4095 173.383 30.1367 173.264 29.9153C173.145 29.686 172.983 29.512 172.778 29.3934C172.58 29.2748 172.351 29.2155 172.09 29.2155C171.837 29.2155 171.607 29.2748 171.402 29.3934C171.204 29.512 171.042 29.686 170.916 29.9153C170.797 30.1367 170.738 30.4095 170.738 30.7337C170.738 31.0579 170.797 31.3386 170.916 31.5759C171.042 31.8052 171.204 31.9791 171.402 32.0977C171.607 32.2164 171.837 32.2757 172.09 32.2757ZM179.468 34.0667C178.946 34.0667 178.475 33.9639 178.056 33.7583C177.645 33.5527 177.321 33.2325 177.084 32.7976C176.854 32.3547 176.74 31.7973 176.74 31.1251V27.5312H178.993V30.7574C178.993 31.2556 179.084 31.6114 179.266 31.8249C179.456 32.0384 179.721 32.1452 180.061 32.1452C180.282 32.1452 180.484 32.0938 180.666 31.991C180.848 31.8882 180.994 31.7261 181.105 31.5047C181.215 31.2754 181.271 30.9828 181.271 30.627V27.5312H183.524V33.96H181.377V32.1452L181.792 32.6552C181.571 33.1297 181.251 33.4855 180.832 33.7227C180.413 33.9521 179.958 34.0667 179.468 34.0667ZM184.976 33.96V27.5312H187.123V29.4052L186.802 28.8715C186.992 28.3891 187.301 28.0293 187.728 27.7921C188.155 27.547 188.673 27.4244 189.281 27.4244V29.4527C189.179 29.4369 189.088 29.429 189.009 29.429C188.938 29.4211 188.858 29.4171 188.771 29.4171C188.313 29.4171 187.941 29.5436 187.656 29.7967C187.372 30.0418 187.229 30.4451 187.229 31.0065V33.96H184.976Z" fill="#A93677"/>
<path d="M2.68309 18.96V0.371726H11.1806C12.8801 0.371726 14.3406 0.646124 15.5621 1.19492C16.8013 1.74372 17.7573 2.54035 18.43 3.58484C19.1027 4.61161 19.4391 5.83313 19.4391 7.24937C19.4391 8.64792 19.1027 9.86058 18.43 10.8874C17.7573 11.8964 16.8013 12.6754 15.5621 13.2242C14.3406 13.7553 12.8801 14.0208 11.1806 14.0208H5.6041L7.9409 11.8168V18.96H2.68309ZM14.1812 18.96L9.56073 12.1885H15.1638L19.8108 18.96H14.1812ZM7.9409 12.3744L5.6041 9.95794H10.8619C11.9595 9.95794 12.7738 9.71895 13.3049 9.24097C13.8537 8.76299 14.1281 8.09912 14.1281 7.24937C14.1281 6.38192 13.8537 5.70921 13.3049 5.23122C12.7738 4.75324 11.9595 4.51425 10.8619 4.51425H5.6041L7.9409 2.09778V12.3744ZM31.7135 19.3317C30.2265 19.3317 28.8545 19.0927 27.5975 18.6148C26.3406 18.1368 25.243 17.4641 24.3048 16.5966C23.3842 15.7114 22.6672 14.6847 22.1538 13.5163C21.6405 12.3479 21.3838 11.0644 21.3838 9.66584C21.3838 8.2673 21.6405 6.98383 22.1538 5.81542C22.6672 4.64702 23.3842 3.62909 24.3048 2.76164C25.243 1.87649 26.3406 1.19492 27.5975 0.716937C28.8545 0.238954 30.2265 -3.81392e-05 31.7135 -3.81392e-05C33.2183 -3.81392e-05 34.5903 0.238954 35.8295 0.716937C37.0864 1.19492 38.1751 1.87649 39.0957 2.76164C40.0163 3.62909 40.7332 4.64702 41.2466 5.81542C41.7777 6.98383 42.0433 8.2673 42.0433 9.66584C42.0433 11.0644 41.7777 12.3567 41.2466 13.5428C40.7332 14.7112 40.0163 15.7291 39.0957 16.5966C38.1751 17.4641 37.0864 18.1368 35.8295 18.6148C34.5903 19.0927 33.2183 19.3317 31.7135 19.3317ZM31.7135 14.9768C32.4216 14.9768 33.0766 14.8528 33.6786 14.605C34.2982 14.3572 34.8293 14.0031 35.2718 13.5428C35.7321 13.0648 36.0862 12.4983 36.334 11.8433C36.5996 11.1883 36.7323 10.4625 36.7323 9.66584C36.7323 8.8515 36.5996 8.12568 36.334 7.48837C36.0862 6.83335 35.7321 6.2757 35.2718 5.81542C34.8293 5.33744 34.2982 4.97453 33.6786 4.72668C33.0766 4.47884 32.4216 4.35492 31.7135 4.35492C31.0054 4.35492 30.3415 4.47884 29.7219 4.72668C29.12 4.97453 28.5889 5.33744 28.1286 5.81542C27.6861 6.2757 27.332 6.83335 27.0665 7.48837C26.8186 8.12568 26.6947 8.8515 26.6947 9.66584C26.6947 10.4625 26.8186 11.1883 27.0665 11.8433C27.332 12.4983 27.6861 13.0648 28.1286 13.5428C28.5889 14.0031 29.12 14.3572 29.7219 14.605C30.3415 14.8528 31.0054 14.9768 31.7135 14.9768ZM42.3071 18.96L50.5125 0.371726H55.6907L63.9226 18.96H58.4524L52.0261 2.94752H54.0974L47.6712 18.96H42.3071ZM46.7949 15.3485L48.1492 11.4716H57.2308L58.5851 15.3485H46.7949ZM65.4132 18.96V0.371726H74.2028C76.2563 0.371726 78.062 0.752343 79.6199 1.51358C81.1778 2.27481 82.3904 3.34584 83.2579 4.72668C84.143 6.10752 84.5856 7.75391 84.5856 9.66584C84.5856 11.5601 84.143 13.2065 83.2579 14.605C82.3904 15.9858 81.1778 17.0569 79.6199 17.8181C78.062 18.5793 76.2563 18.96 74.2028 18.96H65.4132ZM70.671 14.7643H73.9903C75.0525 14.7643 75.9731 14.5696 76.752 14.1801C77.5487 13.773 78.1683 13.1888 78.6108 12.4275C79.0534 11.6486 79.2747 10.728 79.2747 9.66584C79.2747 8.58596 79.0534 7.6654 78.6108 6.90416C78.1683 6.14293 77.5487 5.56758 76.752 5.17811C75.9731 4.77094 75.0525 4.56736 73.9903 4.56736H70.671V14.7643ZM93.8843 19.3317C92.3618 19.3317 90.8925 19.1458 89.4762 18.7741C88.0777 18.3846 86.9358 17.8889 86.0507 17.287L87.7767 13.41C88.6088 13.9411 89.5648 14.3837 90.6446 14.7378C91.7422 15.0741 92.831 15.2423 93.9109 15.2423C94.6367 15.2423 95.2209 15.1804 95.6635 15.0564C96.106 14.9148 96.4247 14.7378 96.6194 14.5253C96.8319 14.2952 96.9381 14.0297 96.9381 13.7287C96.9381 13.3038 96.7433 12.9675 96.3539 12.7196C95.9644 12.4718 95.4599 12.2682 94.8403 12.1089C94.2207 11.9495 93.5302 11.7902 92.769 11.6309C92.0255 11.4716 91.2731 11.268 90.5119 11.0201C89.7683 10.7723 89.0868 10.4536 88.4672 10.0642C87.8476 9.65699 87.343 9.13475 86.9535 8.49744C86.5641 7.84243 86.3693 7.01923 86.3693 6.02786C86.3693 4.91257 86.6703 3.90349 87.2722 3.00063C87.8918 2.09778 88.8124 1.37195 90.0339 0.823156C91.2554 0.27436 92.7779 -3.81392e-05 94.6013 -3.81392e-05C95.8228 -3.81392e-05 97.0177 0.141587 98.1862 0.424837C99.3723 0.690383 100.426 1.0887 101.346 1.61979L99.7263 5.52332C98.8412 5.04534 97.9649 4.69128 97.0974 4.46114C96.23 4.2133 95.3891 4.08937 94.5747 4.08937C93.8489 4.08937 93.2647 4.16904 92.8221 4.32837C92.3795 4.46999 92.0609 4.66472 91.8662 4.91257C91.6714 5.16041 91.5741 5.44366 91.5741 5.76232C91.5741 6.16949 91.7599 6.49699 92.1317 6.74484C92.5212 6.97498 93.0257 7.16971 93.6453 7.32904C94.2826 7.47066 94.973 7.62114 95.7166 7.78047C96.4778 7.93979 97.2302 8.14338 97.9737 8.39122C98.7349 8.62136 99.4254 8.94002 100.045 9.34719C100.665 9.73666 101.16 10.2589 101.532 10.9139C101.922 11.5512 102.116 12.3567 102.116 13.3304C102.116 14.4103 101.806 15.4105 101.187 16.3311C100.585 17.2339 99.6732 17.9597 98.4517 18.5085C97.2479 19.0573 95.7254 19.3317 93.8843 19.3317ZM116.229 18.96V4.5408H110.52V0.371726H127.17V4.5408H121.487V18.96H116.229ZM138.243 19.3317C136.756 19.3317 135.384 19.0927 134.127 18.6148C132.87 18.1368 131.773 17.4641 130.834 16.5966C129.914 15.7114 129.197 14.6847 128.684 13.5163C128.17 12.3479 127.913 11.0644 127.913 9.66584C127.913 8.2673 128.17 6.98383 128.684 5.81542C129.197 4.64702 129.914 3.62909 130.834 2.76164C131.773 1.87649 132.87 1.19492 134.127 0.716937C135.384 0.238954 136.756 -3.81392e-05 138.243 -3.81392e-05C139.748 -3.81392e-05 141.12 0.238954 142.359 0.716937C143.616 1.19492 144.705 1.87649 145.625 2.76164C146.546 3.62909 147.263 4.64702 147.776 5.81542C148.307 6.98383 148.573 8.2673 148.573 9.66584C148.573 11.0644 148.307 12.3567 147.776 13.5428C147.263 14.7112 146.546 15.7291 145.625 16.5966C144.705 17.4641 143.616 18.1368 142.359 18.6148C141.12 19.0927 139.748 19.3317 138.243 19.3317ZM138.243 14.9768C138.951 14.9768 139.606 14.8528 140.208 14.605C140.828 14.3572 141.359 14.0031 141.801 13.5428C142.262 13.0648 142.616 12.4983 142.864 11.8433C143.129 11.1883 143.262 10.4625 143.262 9.66584C143.262 8.8515 143.129 8.12568 142.864 7.48837C142.616 6.83335 142.262 6.2757 141.801 5.81542C141.359 5.33744 140.828 4.97453 140.208 4.72668C139.606 4.47884 138.951 4.35492 138.243 4.35492C137.535 4.35492 136.871 4.47884 136.252 4.72668C135.65 4.97453 135.119 5.33744 134.658 5.81542C134.216 6.2757 133.862 6.83335 133.596 7.48837C133.348 8.12568 133.224 8.8515 133.224 9.66584C133.224 10.4625 133.348 11.1883 133.596 11.8433C133.862 12.4983 134.216 13.0648 134.658 13.5428C135.119 14.0031 135.65 14.3572 136.252 14.605C136.871 14.8528 137.535 14.9768 138.243 14.9768ZM159.904 19.3317C157.16 19.3317 155.018 18.5793 153.478 17.0746C151.937 15.5698 151.167 13.4366 151.167 10.6749V0.371726H156.425V10.5156C156.425 12.1089 156.735 13.2507 157.355 13.9411C157.992 14.6316 158.859 14.9768 159.957 14.9768C161.055 14.9768 161.913 14.6316 162.533 13.9411C163.152 13.2507 163.462 12.1089 163.462 10.5156V0.371726H168.64V10.6749C168.64 13.4366 167.87 15.5698 166.33 17.0746C164.79 18.5793 162.648 19.3317 159.904 19.3317ZM172.202 18.96V0.371726H180.7C182.399 0.371726 183.86 0.646124 185.081 1.19492C186.32 1.74372 187.276 2.54035 187.949 3.58484C188.622 4.61161 188.958 5.83313 188.958 7.24937C188.958 8.64792 188.622 9.86058 187.949 10.8874C187.276 11.8964 186.32 12.6754 185.081 13.2242C183.86 13.7553 182.399 14.0208 180.7 14.0208H175.123L177.46 11.8168V18.96H172.202ZM183.7 18.96L179.08 12.1885H184.683L189.33 18.96H183.7ZM177.46 12.3744L175.123 9.95794H180.381C181.479 9.95794 182.293 9.71895 182.824 9.24097C183.373 8.76299 183.647 8.09912 183.647 7.24937C183.647 6.38192 183.373 5.70921 182.824 5.23122C182.293 4.75324 181.479 4.51425 180.381 4.51425H175.123L177.46 2.09778V12.3744Z" fill="#A93677"/>
</svg>
